<?xml version="1.0" encoding="UTF-8" standalone="no"?>
<svg
  version="1.0"
  width="219.64"
  height="80.482994"
  viewBox="0 0 219.64 80.482992"
  preserveAspectRatio="xMidYMid"
  color-interpolation-filters="sRGB"
  id="svg14"
  xmlns="http://www.w3.org/2000/svg"
  xmlns:svg="http://www.w3.org/2000/svg">
  <defs>
    <ref id="paramColorA" param="colorA" default="#bc70f1"></ref>
    <ref id="paramColorB" param="colorB" default="#53057c"></ref>
  </defs>
  <g
    fill="#53057c"
    id="g14"
    transform="translate(0,0.02790224)">
    <g
      transform="translate(0,54.545094)"
      id="g13">
      <g
        data-gra="path-name"
        fill-rule=""
        opacity="1"
        id="g12">
        <g
          id="g11">
          <g
            id="g8">
            <path
              d="M 14.01,0 12.34,-5.87 H 4.36 L 2.71,0 H 0.35 l 7.38,-25.21 h 1.2 L 16.35,0 Z M 8.28,-19.65 4.97,-8.03 h 6.77 L 8.42,-19.65 8.35,-20.58 Z M 33.77,0 h -1.2 L 22.06,-18.35 21.85,-19.44 V 0 h -2.27 v -25.21 h 1.18 l 10.51,18.37 0.23,1.07 v -19.44 h 2.27 z M 41.8,0 H 39.53 V -25.21 H 41.8 Z M 65.36,0 H 63.09 V -17.28 L 62.93,-16.21 57.08,0 h -1.2 l -5.91,-16.21 -0.14,-1.07 V 0 h -2.26 v -25.21 h 1.17 l 7.65,20.67 0.07,0.94 0.07,-0.94 7.63,-20.67 h 1.2 z M 85.29,0 H 71.1 v -25.21 h 14.19 v 2.17 H 73.37 v 9.36 h 9.65 v 2.17 h -9.65 v 9.35 h 11.92 z"
              transform="translate(-0.34999999,25.559999)"
              id="path7" />
          </g>
          <!---->
          <!---->
          <!---->
          <!---->
          <!---->
          <!---->
          <g
            data-gra="path-name-1"
            fill="#bc70f1"
            transform="translate(87.940002)"
            id="g10">
            <g
              id="g9">
              <path
                d="M 26.38,-25.21 19.72,0 h -1.18 l -4.9,-18.97 -0.07,-0.98 -0.11,0.98 L 8.6,0 H 7.42 L 0.72,-25.21 H 2.99 L 7.93,-6.05 8,-5.12 8.07,-6.05 12.92,-25.21 h 1.27 l 4.85,19.16 0.07,0.93 0.09,-0.93 4.92,-19.16 z M 40.39,0 38.72,-5.87 H 30.74 L 29.09,0 h -2.35 l 7.38,-25.21 h 1.19 L 42.73,0 Z m -5.73,-19.65 -3.3,11.62 h 6.77 l -3.33,-11.62 -0.07,-0.93 z m 22.36,-3.39 H 51.01 V 0 h -2.27 v -23.04 h -6.01 v -2.17 h 14.29 z m 17.42,17.2 v 0 q 0,1.29 -0.48,2.41 -0.48,1.13 -1.33,1.97 -0.84,0.84 -1.97,1.33 -1.12,0.48 -2.4,0.48 v 0 h -1.8 q -1.28,0 -2.41,-0.48 -1.14,-0.49 -1.98,-1.33 -0.85,-0.84 -1.33,-1.97 -0.48,-1.12 -0.48,-2.41 v 0 -13.53 q 0,-1.28 0.48,-2.41 0.48,-1.12 1.33,-1.97 0.84,-0.84 1.98,-1.33 1.13,-0.48 2.41,-0.48 v 0 h 1.8 q 1.28,0 2.4,0.48 1.13,0.49 1.97,1.33 0.85,0.85 1.33,1.97 0.48,1.13 0.48,2.41 v 0 1.02 L 72.18,-18 v -1.37 q 0,-0.84 -0.32,-1.57 -0.32,-0.73 -0.86,-1.28 -0.55,-0.54 -1.28,-0.86 -0.73,-0.32 -1.57,-0.32 v 0 h -1.58 q -0.85,0 -1.57,0.32 -0.73,0.32 -1.29,0.86 -0.55,0.55 -0.87,1.28 -0.31,0.73 -0.31,1.57 v 0 13.53 q 0,0.85 0.31,1.58 0.32,0.73 0.87,1.28 0.56,0.55 1.29,0.87 0.72,0.32 1.57,0.32 v 0 h 1.58 q 0.84,0 1.57,-0.32 0.73,-0.32 1.28,-0.87 0.54,-0.55 0.86,-1.28 0.32,-0.73 0.32,-1.58 v 0 -1.37 l 2.26,0.37 z M 93.67,0 H 91.41 V -11.51 H 81.76 V 0 h -2.27 v -25.21 h 2.27 v 11.53 h 9.65 v -11.53 h 2.26 z m 19.96,0 H 99.44 v -25.21 h 14.19 v 2.17 h -11.92 v 9.36 h 9.65 v 2.17 h -9.65 v 9.35 h 11.92 z m 18.79,0 h -2.62 l -6.84,-10.76 h -3.11 V 0 h -2.27 v -25.21 h 8 q 1.28,0 2.41,0.49 1.12,0.48 1.97,1.32 0.84,0.85 1.32,1.98 0.49,1.13 0.49,2.42 v 0 2.04 q 0,1.28 -0.49,2.41 -0.48,1.14 -1.32,1.98 -0.85,0.85 -1.97,1.33 -1.13,0.48 -2.41,0.48 v 0 z M 129.5,-16.96 V -19 q 0,-0.85 -0.32,-1.58 -0.31,-0.72 -0.86,-1.28 -0.54,-0.55 -1.27,-0.87 -0.73,-0.31 -1.58,-0.31 v 0 h -5.62 v 10.12 h 5.62 q 0.85,0 1.58,-0.32 0.73,-0.31 1.27,-0.87 0.55,-0.55 0.86,-1.28 0.32,-0.73 0.32,-1.57 z"
                transform="translate(-0.72000003,25.559999)"
                id="path8" />
            </g>
          </g>
        </g>
      </g>
    </g>
  </g>
  <g
    id="g6"
    transform="matrix(0.67571822,0,0,0.67571822,26.643203,0.01885408)">
    <!---->
    <svg
      viewBox="-0.00049960613 -0.028018922 147.16513 116.61678"
      version="1.1"
      id="svg5"
      width="100%"
      height="100%"
      style="display:inline;overflow:visible;image-rendering:crisp-edges">
      <path
        d="m 12.6,0 c 2.87,0 5.74,0.11 8.6,0 a 5.78,5.78 0 0 1 5.65,3 Q 37,19.19 47.23,35.26 53.38,45 59.56,54.6 c 0.74,1.17 1.75,2.38 0.9,3.83 -0.85,1.45 -2.27,1.2 -3.57,1.21 H 41.01 A 8,8 0 0 1 33.25,55.41 C 22.69,38.41 11.9,21.61 1.25,4.74 A 15,15 0 0 1 0.41,3.45 C -0.55,1.43 0.19,0.12 2.46,0.07 5.84,0 9.22,0.05 12.6,0.05 Z"
        fill="#bc70f1"
        id="path1" />
      <path
        d="m 70.34,27.36 h 9.27 a 5,5 0 0 1 4.63,2.41 Q 95,46.7 105.76,63.62 a 3.38,3.38 0 0 1 -0.14,4.06 c -3.12,4.82 -6.13,9.69 -9.18,14.55 -1.85,2.94 -3.58,3 -5.45,0.08 Q 76.8,60 62.69,37.6 c -1.26,-2 -2.58,-3.94 -3.84,-5.92 -0.61,-1 -1.55,-1.92 -0.89,-3.21 0.66,-1.29 2,-1.1 3.12,-1.1 3.09,-0.02 6.18,-0.01 9.26,-0.01 z"
        fill="#53057c"
        id="path2" />
      <path
        d="m 58.45,72.43 h 9.48 a 4.78,4.78 0 0 1 4.39,2.43 c 4.31,6.83 8.61,13.67 13,20.46 a 3.55,3.55 0 0 1 0,4.41 c -3.18,4.85 -6.17,9.83 -9.31,14.71 -1.86,2.87 -3.42,2.86 -5.27,0 q -12,-18.86 -24,-37.76 c -0.58,-0.92 -1.27,-1.87 -0.66,-3.06 0.61,-1.19 1.94,-1.14 3.1,-1.15 3.1,-0.05 6.19,-0.04 9.27,-0.04 z M 104.31,20 c -3,0 -6,-0.07 -9,0 A 5.14,5.14 0 0 1 90.48,17.5 C 87.54,12.84 84.6,8.17 81.73,3.5 80.58,1.64 81.34,0.12 83.42,0.1 90.18,0 97,0.05 103.71,0.1 a 4.3,4.3 0 0 1 3.67,2.13 c 3,4.73 6,9.44 8.87,14.22 1.23,2 0.4,3.43 -2,3.48 -3.31,0.07 -6.62,0 -9.93,0 z"
        fill="#bc70f1"
        id="path3" />
      <path
        d="m 52.94,0.05 h 9.24 a 5.48,5.48 0 0 1 5.12,2.8 c 1.52,2.51 3.15,5 4.65,7.47 1.36,2.28 0.63,3.8 -2,3.83 -6.45,0.09 -12.91,0 -19.37,0 a 5.5,5.5 0 0 1 -4.8,-3 C 44.23,8.65 42.69,6.15 41.18,3.64 39.93,1.52 40.72,0.11 43.25,0.07 46.48,0 49.71,0.05 52.94,0.05 Z m 81.49,0 H 145 c 2.18,0 2.72,0.93 1.59,2.75 q -5.34,8.61 -10.83,17.11 c -1,1.6 -2,1.62 -3,0 q -5.55,-8.6 -10.94,-17.3 c -1,-1.64 -0.43,-2.56 1.64,-2.6 3.63,-0.01 7.3,0.04 10.97,0.04 z"
        fill="#53057c"
        id="path4" />
      <path
        d="M 113.85,33.13 H 124 c 2.31,0 2.85,0.94 1.65,2.86 q -5,8.05 -10.14,16 c -1,1.58 -2.06,1.69 -3.06,0.13 -3.55,-5.5 -7,-11 -10.43,-16.63 -0.91,-1.48 -0.38,-2.33 1.46,-2.37 3.45,-0.07 6.91,0 10.37,0 z"
        fill="#bc70f1"
        id="path5" />
    </svg>
  </g>
</svg>